<svg width="153" height="20" xmlns="http://www.w3.org/2000/svg" viewBox="45.83 47.485 408.34 55.75" style="background:0 0" preserveAspectRatio="xMidYMid"><defs><filter id="a" x="-100%" y="-100%" width="300%" height="300%"><feFlood result="color1" flood-color="#a8a8a8"/><feConvolveMatrix order="3,3" divisor="1" kernelMatrix="1 0 0 0 1 0 0 0 1" in="SourceAlpha" result="extrude"/><feComposite in="color1" in2="extrude" result="comp-extrude" operator="in"/><feOffset dx="1.5" dy="1.5" in="comp-extrude" result="offset-extrude"/><feMerge><feMergeNode in="offset-extrude"/><feMergeNode in="SourceGraphic"/></feMerge></filter></defs><g filter="url(#a)"><path d="M54.53 50.335v52.54h-8.7v-52.54h8.7Zm45.98 51.11v1.43h-8.7v-21.89q0-2.42-.21-4.63-.22-2.21-1-3.92t-2.14-2.67q-1.35-.97-3.78-.97-.78 0-2.03.22-1.25.21-2.56.64-1.32.43-2.5 1.07-1.18.64-1.75 1.5v30.65h-8.62v-40.21h7.7l.92 4.07q.86-.79 2.18-1.61 1.32-.82 2.89-1.46 1.56-.64 3.2-1.03 1.64-.39 3.21-.39 3.21 0 5.42 1.35t4.42 3.49q1.21 1.21 1.89 2.82.68 1.6 1 3.35.32 1.75.39 3.53.07 1.78.07 3.49v21.17Zm28.73-39.2q4.85 0 8.55 1.96 3.71 1.96 6.1 5.2 2.39 3.24 3.42 7.49 1.03 4.24.39 8.8h-27.94q0 2.28.85 4.21.86 1.92 2.32 3.31 1.46 1.39 3.49 2.17 2.04.79 4.39.79.78 0 1.96-.18 1.17-.18 2.49-.64 1.32-.46 2.64-1.18 1.32-.71 2.32-1.71l3.13 4.78q-2.35 2.92-5.48 4.42-3.14 1.5-7.99 1.5-3.92 0-7.34-1.61-3.42-1.6-5.85-4.38-2.42-2.78-3.85-6.49-1.42-3.71-1.42-7.98 0-4.21 1.42-7.95 1.43-3.75 3.82-6.53 2.39-2.78 5.66-4.38 3.28-1.6 6.92-1.6Zm-9.2 17.18h19.68q0-1.93-.71-3.78-.72-1.86-1.96-3.35-1.25-1.5-3.03-2.39-1.79-.89-3.85-.96-2.21 0-4.07.85-1.85.86-3.21 2.28-1.35 1.43-2.1 3.39-.75 1.96-.75 3.96Zm38.93 20.24 3.63-5.77q1.43 1 3.39 1.85 1.96.86 4.95.86 3.92 0 6.13-1.22 2.21-1.21 2.21-3.56 0-1.71-1.28-2.74-1.28-1.04-3.24-1.79-1.96-.75-4.21-1.42-2.24-.68-4.17-1.68-3.78-1.99-5.67-4.2-1.89-2.21-1.89-5.85 0-2.99 1.25-5.27 1.25-2.29 3.25-3.82 1.99-1.53 4.56-2.32 2.56-.78 5.2-.78 3.57 0 6.56.75 2.99.75 5.78 2.53l-2.79 5.92q-2.13-1.22-4.63-1.68-2.49-.46-4.92-.46-2.64 0-4.17 1.17-1.53 1.18-1.53 3.68 0 1.92 1.39 3.03 1.39 1.1 3.6 1.96 2.21.85 4.7 1.71 2.5.85 4.67 2.17 2.18 1.32 3.6 3.32 1.43 1.99 1.43 5.13 0 3.06-1.21 5.35-1.21 2.28-3.28 3.77-2.07 1.5-4.78 2.21-2.71.72-5.77.72-1.86 0-3.42-.11-1.57-.11-3.07-.46-1.5-.36-2.99-1.07-1.5-.72-3.28-1.93Zm72.28 1.78v1.43h-8.69v-21.89q0-2.42-.22-4.63-.21-2.21-1-3.92-.78-1.71-2.13-2.67-1.36-.97-3.78-.97-.79 0-2.03.22-1.25.21-2.57.64-1.32.43-2.5 1.07-1.17.64-1.74 1.5v30.65h-8.63v-55.39h8.63v19.25q.85-.79 2.17-1.61 1.32-.82 2.89-1.46t3.21-1.03q1.64-.39 3.21-.39 3.2 0 5.41 1.35t4.42 3.49q1.22 1.21 1.89 2.82.68 1.6 1 3.35.32 1.75.39 3.53.07 1.78.07 3.49v21.17Zm59.82-12.97q0 2.85-1.18 5.52-1.18 2.68-3.32 4.71-2.13 2.03-5.27 3.24-3.14 1.22-7.13 1.22-1.71 0-3.53-.18-1.82-.18-3.67-.61-1.85-.43-3.53-1.18-1.67-.74-2.89-1.81l1.5-6.13q1 .57 2.53 1.1 1.53.54 3.17 1 1.64.46 3.28.75 1.64.28 3.07.28 4.35 0 6.66-2.03 2.32-2.03 2.32-6.02 0-2.43-1.64-4.14-1.64-1.71-4.1-3.1-2.46-1.39-5.31-2.78-2.85-1.39-5.35-3.28-2.49-1.89-4.13-4.45-1.64-2.57-1.64-6.42 0-3.49 1.28-6.2 1.29-2.71 3.46-4.6 2.18-1.89 5.06-2.89 2.89-1 6.1-1 3.28 0 6.63.61t5.42 1.96q-.43.93-1 2.03-.57 1.11-1.07 2.07-.5.96-.86 1.6-.35.65-.42.72-.43-.22-.97-.57-.53-.36-1.53-.72-1-.35-2.64-.5-1.64-.14-4.2.08-1.43.14-2.71.82-1.29.67-2.28 1.67-1 1-1.57 2.25-.57 1.24-.57 2.38 0 2.86 1.64 4.6 1.64 1.75 4.06 3.07 2.42 1.32 5.28 2.56 2.85 1.25 5.31 3.03 2.46 1.79 4.1 4.46 1.64 2.67 1.64 6.88Zm25.3-26.23q4.85 0 8.56 1.96 3.7 1.96 6.09 5.2 2.39 3.24 3.42 7.49 1.04 4.24.4 8.8h-27.95q0 2.28.86 4.21.85 1.92 2.31 3.31 1.47 1.39 3.5 2.17 2.03.79 4.38.79.79 0 1.96-.18 1.18-.18 2.5-.64t2.63-1.18q1.32-.71 2.32-1.71l3.14 4.78q-2.35 2.92-5.49 4.42t-7.99 1.5q-3.92 0-7.34-1.61-3.42-1.6-5.84-4.38-2.43-2.78-3.85-6.49-1.43-3.71-1.43-7.98 0-4.21 1.43-7.95 1.42-3.75 3.81-6.53 2.39-2.78 5.67-4.38t6.91-1.6Zm-9.19 17.18h19.67q0-1.93-.71-3.78-.71-1.86-1.96-3.35-1.25-1.5-3.03-2.39-1.78-.89-3.85-.96-2.21 0-4.06.85-1.86.86-3.21 2.28-1.36 1.43-2.1 3.39-.75 1.96-.75 3.96Zm72.85 23.45h-9.83l-14.62-19.25v19.25h-8.7v-55.39h8.7v34.36l12.91-19.18h9.69l-14.11 20.04 15.96 20.17Zm37.93-21.74v9.83q0 .58.07 1.68t.29 2.25q.21 1.14.67 2.06.47.93 1.25 1.21l-2.28 4.78q-.93 0-1.96-.43-1.03-.42-2-1.21-.96-.78-1.64-1.74-.67-.97-1.03-2.11-.5 1.21-1.75 2.25-1.24 1.03-2.81 1.85-1.57.82-3.39 1.25-1.82.43-3.38.43-2.43 0-4.67-.65-2.25-.64-3.96-2.06-1.71-1.43-2.67-3.78-.97-2.35-.97-5.78 0-3.27 1.39-5.66t3.57-3.92q2.17-1.54 4.95-2.28 2.78-.75 5.63-.75h6.06q0-3.5-.35-5.56-.36-2.07-1.21-3.03-.86-.97-2.11-1.22-1.24-.25-2.96-.25-1.56 0-2.95.4-1.39.39-2.57.92-1.18.54-2.07 1.18-.89.64-1.32 1l-3.2-4.92q.71-.79 2.13-1.6 1.43-.82 3.28-1.47 1.86-.64 4.03-1.03 2.18-.39 4.53-.39 2.14 0 4.17.43 2.03.42 3.71 1.42 1.67 1 2.92 2.67 1.25 1.68 1.74 4.18.5 2.49.68 5.02.18 2.53.18 5.03Zm-8.55 12.12v-9.84h-4.57q-1.42 0-2.99.28-1.57.29-2.92 1.07-1.36.79-2.25 2.25-.89 1.46-.89 3.74 0 3.57 1.6 5.13 1.61 1.57 4.67 1.57 2.14 0 4.1-1.14 1.96-1.14 3.25-3.06Zm44.76-30.87v8.98q-1.99-.57-4.84-.64-2.57 0-5.1.6-2.53.61-4.03 2.04v29.51h-8.62v-40.21h7.7l.92 4.14q1.07-1.07 2.25-1.93 1.17-.85 2.74-1.39 1.57-.53 3.71-.82 2.14-.28 5.27-.28Z" fill="#222"/></g></svg>